<svg width="10" height="11" fill="none" xmlns="http://www.w3.org/2000/svg"><path d="M.268 4.125h9.464c.147 0 .268.116.268.258v5.586C10 10.539 9.52 11 8.929 11H1.07C.48 11 0 10.538 0 9.969V4.383c0-.142.12-.258.268-.258zM10 3.18v-.774c0-.57-.48-1.031-1.071-1.031H7.857V.258A.264.264 0 007.59 0h-.893a.264.264 0 00-.267.258v1.117H3.57V.258A.264.264 0 003.304 0H2.41a.264.264 0 00-.268.258v1.117H1.07C.48 1.375 0 1.837 0 2.406v.774c0 .141.12.257.268.257h9.464A.264.264 0 0010 3.18z" fill="#9D9D9D"/></svg>