<svg width="26" height="24" fill="none" xmlns="http://www.w3.org/2000/svg"><path d="M1.625 22.286c0 .948.726 1.714 1.625 1.714h8.125v-8.571h-9.75v6.857zm13 1.714h8.125c.899 0 1.625-.766 1.625-1.714v-6.857h-9.75V24zm9.75-17.143h-2.138a4.875 4.875 0 00.513-2.143C22.75 2.116 20.744 0 18.281 0c-2.112 0-3.478 1.141-5.23 3.659C11.299 1.14 9.933 0 7.82 0 5.356 0 3.35 2.116 3.35 4.714c0 .777.194 1.495.513 2.143H1.625C.726 6.857 0 7.623 0 8.571v4.286c0 .472.366.857.813.857h24.375c.446 0 .812-.385.812-.857V8.571c0-.948-.726-1.714-1.625-1.714zm-16.56 0c-1.122 0-2.031-.959-2.031-2.143 0-1.184.909-2.143 2.031-2.143 1.01 0 1.757.177 4.372 4.286H7.816zm10.466 0H13.91c2.61-4.098 3.336-4.286 4.372-4.286 1.123 0 2.032.96 2.032 2.143 0 1.184-.91 2.143-2.032 2.143z" fill="#FFA801"/></svg>