<svg width="15" height="16" fill="none" xmlns="http://www.w3.org/2000/svg"><path d="M13.594.938H1.406c-.39 0-.722.136-.996.41-.273.273-.41.605-.41.996V14.53c0 .39.137.723.41.996.274.274.606.41.996.41h12.188c.39 0 .722-.136.996-.41.273-.273.41-.605.41-.996V2.344c0-.39-.137-.723-.41-.996a1.356 1.356 0 00-.996-.41zM10.313 3.28c0-.127.043-.234.131-.322a.463.463 0 01.337-.147h1.875c.127 0 .235.05.322.147a.417.417 0 01.147.322v1.875c0 .127-.049.24-.146.337a.438.438 0 01-.323.132h-1.875a.489.489 0 01-.337-.132.489.489 0 01-.132-.337V3.281zM7.5 5.625c.771 0 1.43.273 1.978.82.556.547.835 1.211.835 1.992 0 .772-.274 1.436-.82 1.993a2.716 2.716 0 01-1.993.82 2.744 2.744 0 01-1.992-.82 2.712 2.712 0 01-.82-1.992c0-.772.273-1.431.82-1.978A2.688 2.688 0 017.5 5.625zm5.625 7.969a.466.466 0 01-.146.337.438.438 0 01-.323.132H2.344a.489.489 0 01-.337-.132.489.489 0 01-.132-.337V7.5H2.9a6.73 6.73 0 00-.073.454c-.01.156-.014.317-.014.484 0 .644.122 1.254.366 1.83.244.567.576 1.065.996 1.495.43.42.928.752 1.494.996a4.645 4.645 0 001.831.366 4.54 4.54 0 001.816-.366 4.658 4.658 0 002.842-4.79A3.418 3.418 0 0012.1 7.5h1.025v6.094z" fill="#A5A5A5"/></svg>