<svg width="17" height="14" fill="none" xmlns="http://www.w3.org/2000/svg"><path d="M16.594 2.117c-.422.656-.985 1.242-1.688 1.758v.422c0 2.46-.89 4.7-2.672 6.715C10.477 13.004 8.133 14 5.204 14c-1.876 0-3.61-.516-5.204-1.547.375.047.645.07.809.07 1.57 0 2.976-.492 4.218-1.476a3.49 3.49 0 01-1.968-.668A3.311 3.311 0 011.863 8.69c.282.047.492.07.633.07.234 0 .54-.046.914-.14a3.557 3.557 0 01-1.969-1.16 3.353 3.353 0 01-.773-2.18v-.035c.516.281 1.031.422 1.547.422C1.207 5.012.703 4.062.703 2.82c0-.586.152-1.148.457-1.687 1.805 2.226 4.137 3.41 6.996 3.55-.047-.163-.07-.421-.07-.773 0-.96.328-1.77.984-2.426C9.727.828 10.535.5 11.496.5c.961 0 1.781.363 2.461 1.09.703-.117 1.43-.399 2.18-.844-.235.82-.739 1.453-1.512 1.899a5.807 5.807 0 001.969-.528z" fill="#A5A5A5"/></svg>