<svg width="18" height="14" fill="none" xmlns="http://www.w3.org/2000/svg"><path d="M17.895 3.488a67.82 67.82 0 010 7.524c0 .797-.258 1.476-.774 2.039a2.376 2.376 0 01-1.828.808C13.488 13.953 11.391 14 9 14c-2.39 0-4.488-.047-6.293-.14-.727 0-1.348-.27-1.863-.81-.492-.562-.739-1.241-.739-2.038A67.807 67.807 0 010 7.25c0-.82.047-2.074.14-3.762 0-.797.247-1.465.739-2.004C1.37.922 1.98.641 2.707.641 4.418.547 6.41.5 8.684.5h.632c2.274 0 4.266.047 5.977.14.727 0 1.336.282 1.828.844.516.54.774 1.207.774 2.004zM7.277 10.695l5.098-3.445-5.098-3.48v6.925z" fill="#A5A5A5"/></svg>