<svg width="14" height="12" fill="none" xmlns="http://www.w3.org/2000/svg"><path d="M12.836 7.062l1.15-4.875c.082-.352-.195-.687-.57-.687H3.87L3.647.45A.579.579 0 003.075 0H.583A.573.573 0 000 .563v.375c0 .31.261.562.583.562h1.699l1.707 8.05a1.304 1.304 0 00-.683 1.137c0 .725.609 1.313 1.36 1.313.752 0 1.362-.588 1.362-1.313 0-.367-.157-.699-.41-.937h5.096c-.252.238-.408.57-.408.938 0 .724.609 1.312 1.36 1.312.752 0 1.362-.588 1.362-1.313 0-.52-.314-.968-.768-1.18l.134-.57c.083-.352-.194-.687-.569-.687H5.301l-.159-.75h7.125a.58.58 0 00.57-.438z" fill="#222"/></svg>